<svg width="100" height="101" fill="none" xmlns="http://www.w3.org/2000/svg"><rect width="100" height="100" rx="50" fill="#969696"/><path d="M49.958 71.2c10.583 0 19.162-11.881 19.162-26.539 0-14.658-8.58-26.54-19.162-26.54-10.582 0-19.161 11.882-19.161 26.54s8.579 26.54 19.161 26.54Z" fill="#fff"/><path d="M49.661 69.505c-16.042 0-30.38 3.841-39.92 9.881 8.923 12.604 23.604 20.835 40.225 20.835 16.499 0 31.088-8.117 40.034-20.569-9.539-6.184-24.068-10.147-40.339-10.147Z" fill="#fff"/><path d="M52.88 82.245h-5.835c-4.024 0-7.318-3.294-7.318-7.318V58.283c0-4.023 3.294-7.317 7.318-7.317h5.834c4.024 0 7.318 3.294 7.318 7.317v16.644c0 4.024-3.294 7.318-7.318 7.318ZM33.824 46.167c.57 4.252-.373 7.941-2.107 8.238-1.742.297-3.613-2.913-4.191-7.173-.57-4.252.372-7.942 2.107-8.238 1.742-.29 3.613 2.92 4.191 7.173ZM66.1 46.167c-.571 4.252.372 7.941 2.106 8.238 1.742.297 3.614-2.914 4.192-7.173.57-4.252-.373-7.942-2.107-8.238-1.735-.297-3.621 2.92-4.192 7.173Z" fill="#fff"/><path d="M31.466 43.618c-.647-4.252-1.286-8.496-1.932-12.749-.236-1.544-.457-3.171.106-4.624.563-1.453 2.214-2.617 3.674-2.07-.586-2.958 2.685-5.142 5.538-6.123 4.777-1.643 9.896-2.48 14.902-1.833 5.005.646 9.896 2.86 13.273 6.618 1.065 1.186 1.993 2.54 2.495 4.054.981 2.914.358 6.1-.274 9.105l-1.506 7.174c-.114.547-.243 1.118-.616 1.536-.593.662-1.597.708-2.487.715-9.501.023-19.002.038-28.51.061-1.788.008-4.123-.434-4.359-2.206" fill="#fff"/></svg>