<svg width="23" height="24" fill="none" xmlns="http://www.w3.org/2000/svg"><path d="M19.632 3.868A11.425 11.425 0 0 0 11.5.5C8.428.5 5.54 1.696 3.368 3.868A11.425 11.425 0 0 0 0 12c0 3.072 1.196 5.96 3.368 8.132A11.425 11.425 0 0 0 11.5 23.5c3.072 0 5.96-1.196 8.132-3.368A11.425 11.425 0 0 0 23 12c0-3.072-1.196-5.96-3.368-8.132ZM11.5 21.703c-5.35 0-9.703-4.353-9.703-9.703S6.15 2.297 11.5 2.297 21.203 6.65 21.203 12s-4.353 9.703-9.703 9.703Zm.898-10.602h4.043v1.797h-4.043v4.043h-1.796v-4.043H6.559V11.1h4.043V7.058h1.796V11.1Z" fill="#25B072"/></svg>