<svg width="238" height="237" fill="none" xmlns="http://www.w3.org/2000/svg"><path fill-rule="evenodd" clip-rule="evenodd" d="M194.011 139.405c-11.647 4.128-24.801 1.163-33.529-7.565l-13.199-13.184 7.295-7.296h3.069c14.308 0 27.666-6.937 35.996-18.167l25.463 25.468-13.179 13.179a31.936 31.936 0 0 1-11.916 7.565Zm-22.865 50.041c-4.809 0-9.445-1.04-13.761-3.094-11.165-5.301-18.386-16.705-18.386-29.054v-18.639h10.344l2.163 2.158c8.524 8.529 20.082 13.115 31.824 13.115 2.154 0 4.312-.189 6.455-.503v36.017h-18.639Zm-65.317 16.118c-3.401-3.402-5.933-7.405-7.524-11.911-4.153-11.632-1.199-24.792 7.524-33.535l13.18-13.179 7.3 7.296v3.063c0 14.279 6.928 27.632 18.163 36.002l-25.458 25.458-13.185-13.194Zm-57.602-34.768c0-4.819 1.045-9.439 3.118-13.766 5.277-11.16 16.67-18.371 29.02-18.371h18.644v10.319l-2.163 2.163c-10.091 10.116-14.627 24.459-12.593 38.305H48.227v-18.65Zm-16.124-65.314c3.422-3.427 7.425-5.963 11.901-7.544 11.652-4.148 24.817-1.184 33.545 7.549l13.179 13.174-7.296 7.301h-3.068c-14.289 0-27.637 6.928-35.987 18.152l-25.453-25.453 13.179-13.179Zm34.784-57.6c4.814 0 9.444 1.04 13.76 3.088C91.804 56.272 99.01 67.675 99.01 80.024v18.64H88.685l-2.154-2.159c-10.1-10.096-24.443-14.641-38.304-12.612V47.882h18.66Zm52.118-29.323 13.199 13.194c3.426 3.427 5.963 7.43 7.544 11.907 4.143 11.637 1.179 24.806-7.544 33.544L119.01 90.388l-7.306-7.3v-3.064c0-14.278-6.918-27.627-18.148-36.002l25.449-25.463Zm7.303 107.403v10.32l-7.301-7.301-7.301 7.301v-10.32h-10.319l7.301-7.301-7.301-7.3h10.319v-10.325l7.301 7.301 7.301-7.296v10.32h10.319l-7.3 7.305 7.305 7.296h-10.324Zm63.477-59.436c0 4.805-1.044 9.42-3.118 13.752-5.256 11.17-16.645 18.386-29.019 18.386h-18.649v-10.3l2.193-2.183c10.081-10.106 14.621-24.454 12.602-38.3h35.991v18.645Zm47.279 52.135-37.166-37.175a44.154 44.154 0 0 0 2.586-14.96V35.185h-52.517c-2.174-4.576-5.113-8.733-8.778-12.403L119.008.6l-37.14 37.16a44.45 44.45 0 0 0-14.98-2.576H35.532v52.543a44.269 44.269 0 0 0-12.398 8.777L.973 118.661l37.145 37.146a44.349 44.349 0 0 0-2.586 14.989v31.341h52.562a44.305 44.305 0 0 0 8.753 12.399l22.161 22.186 37.16-37.161a44.454 44.454 0 0 0 14.98 2.576h31.336v-52.532a44.605 44.605 0 0 0 12.424-8.788l22.156-22.156Z" fill="#3CD993"/></svg>