<svg width="129" height="258" fill="none" xmlns="http://www.w3.org/2000/svg"><path fill-rule="evenodd" clip-rule="evenodd" d="m0 257.989.01.011 40.588-40.604a48.58 48.58 0 0 0 16.37 2.815h34.266V162.8c5-2.375 9.549-5.581 13.549-9.591L129 129 88.408 88.413a48.455 48.455 0 0 0 2.826-16.379V37.79h-57.44a48.407 48.407 0 0 0-9.566-13.548L.011 0 0 .01V20.57L.567 20l14.277 14.33c3.683 3.694 6.424 8.042 8.148 12.936 4.496 12.633 1.297 26.925-8.148 36.42L.573 98 0 97.426v19.155L7.581 109v11.419H19l-8.078 8.078L19 136.576H7.581V148L0 140.419v20.029L.447 160l7.909 7.928v3.327c0 15.505 7.488 30 19.644 39.094L.453 238 0 237.546v20.443ZM73.623 87.105C75.869 82.419 77 77.415 77 72.197V52H37.981c2.203 14.994-2.709 30.527-13.638 41.482L22 95.825V107h20.193c13.375 0 25.715-7.81 31.43-19.895Zm8.133 64.893c4.862-1.712 9.21-4.459 12.928-8.169L109 129.559 81.35 102c-9.07 12.154-23.57 19.655-39.091 19.655h-3.334L31 129.56l14.316 14.264c9.482 9.456 23.782 12.665 36.44 8.174Zm-39.87 50.657A34.493 34.493 0 0 0 56.79 206H77v-39.003c-15.012 2.198-30.546-2.725-41.486-13.659L33.182 151H22v20.188c0 13.374 7.805 25.725 19.886 31.467Z" fill="#3CD993"/></svg>