<svg width="745" height="758" fill="none" xmlns="http://www.w3.org/2000/svg"><rect x="1.5" y="80.5" width="742" height="676" rx="51.5" stroke="#3CD993" stroke-width="3"/><circle cx="371" cy="80" r="78.5" fill="#25B072" stroke="#3CD993" stroke-width="3"/><path fill-rule="evenodd" clip-rule="evenodd" d="M397.417 81.05c-3.944 1.397-8.398.393-11.353-2.562l-4.469-4.464 2.47-2.47h1.039c4.845 0 9.368-2.35 12.188-6.152l8.622 8.624-4.463 4.462a10.813 10.813 0 0 1-4.034 2.561Zm-7.743 16.943c-1.629 0-3.198-.352-4.66-1.048-3.78-1.795-6.225-5.656-6.225-9.837v-6.311h3.502l.733.73c2.886 2.888 6.799 4.441 10.775 4.441.729 0 1.46-.064 2.186-.17v12.195h-6.311Zm-22.115 5.457a10.694 10.694 0 0 1-2.548-4.033 10.942 10.942 0 0 1 2.548-11.354l4.462-4.463 2.472 2.47v1.038c0 4.834 2.346 9.356 6.15 12.19l-8.62 8.62-4.464-4.468Zm-19.505-11.772c0-1.632.354-3.196 1.056-4.66a10.917 10.917 0 0 1 9.826-6.221h6.313v3.494l-.733.732c-3.416 3.425-4.952 8.282-4.263 12.97h-12.199v-6.315Zm-5.457-22.115a10.69 10.69 0 0 1 4.03-2.554c3.945-1.404 8.402-.4 11.358 2.556l4.462 4.46-2.47 2.473h-1.039c-4.838 0-9.358 2.345-12.185 6.146l-8.618-8.618 4.462-4.463Zm11.775-19.503c1.631 0 3.198.352 4.66 1.046a10.942 10.942 0 0 1 6.217 9.837v6.312h-3.496l-.729-.731c-3.42-3.418-8.276-4.958-12.97-4.27V50.06h6.318Zm17.648-9.928 4.469 4.468a10.705 10.705 0 0 1 2.554 4.03c1.403 3.941.4 8.4-2.554 11.359l-4.467 4.464-2.474-2.472v-1.038c0-4.834-2.342-9.354-6.145-12.19l8.617-8.62Zm2.474 36.366v3.494l-2.472-2.472-2.472 2.472v-3.494h-3.494l2.472-2.472-2.472-2.472h3.494v-3.496l2.472 2.472 2.472-2.47v3.494h3.494l-2.472 2.474 2.474 2.47h-3.496Zm21.491-20.125c0 1.627-.354 3.19-1.056 4.656-1.78 3.782-5.636 6.226-9.826 6.226h-6.314v-3.488l.742-.739c3.414-3.422 4.951-8.28 4.267-12.968h12.187v6.313Zm16.008 17.653-12.584-12.587c.58-1.617.876-3.316.876-5.066V45.761h-17.782a15.084 15.084 0 0 0-2.972-4.2l-7.51-7.51-12.576 12.583a15.05 15.05 0 0 0-5.072-.873h-10.617v17.79a15.003 15.003 0 0 0-4.198 2.973l-7.503 7.502 12.577 12.577a15.024 15.024 0 0 0-.876 5.075v10.612h17.797a14.998 14.998 0 0 0 2.964 4.198l7.504 7.512 12.582-12.582c1.623.577 3.32.872 5.072.872h10.61V84.503a15.083 15.083 0 0 0 4.206-2.975l7.502-7.502Z" fill="#3CD993"/></svg>