<svg width="168" height="50" fill="none" xmlns="http://www.w3.org/2000/svg"><path d="M0 5a5 5 0 0 1 5-5h158a5 5 0 0 1 5 5v40a5 5 0 0 1-5 5H5a5 5 0 0 1-5-5V5Z" fill="#fff"/><path d="M84.791 27.189c-2.926 0-5.312 2.236-5.312 5.316 0 3.061 2.386 5.316 5.312 5.316 2.929 0 5.314-2.255 5.314-5.316-.001-3.08-2.387-5.316-5.314-5.316Zm0 8.54c-1.604 0-2.986-1.33-2.986-3.223 0-1.914 1.384-3.222 2.986-3.222 1.605 0 2.987 1.308 2.987 3.222 0 1.893-1.383 3.223-2.987 3.223Zm-11.59-8.54c-2.927 0-5.313 2.236-5.313 5.316 0 3.061 2.386 5.316 5.313 5.316 2.928 0 5.314-2.255 5.314-5.316 0-3.08-2.386-5.316-5.314-5.316Zm0 8.54c-1.604 0-2.987-1.33-2.987-3.223 0-1.914 1.384-3.222 2.987-3.222 1.604 0 2.986 1.308 2.986 3.222.002 1.893-1.382 3.223-2.986 3.223ZM59.415 28.82v2.255h5.373c-.16 1.269-.58 2.195-1.223 2.839-.782.785-2.005 1.651-4.15 1.651-3.308 0-5.894-2.679-5.894-6.001 0-3.323 2.586-6.001 5.894-6.001 1.784 0 3.087.705 4.05 1.61l1.583-1.59c-1.344-1.29-3.127-2.275-5.633-2.275-4.531 0-8.34 3.705-8.34 8.256s3.809 8.256 8.34 8.256c2.445 0 4.29-.806 5.733-2.316 1.483-1.49 1.945-3.585 1.945-5.276 0-.523-.04-1.007-.12-1.41h-7.558v.002Zm56.383 1.751c-.441-1.187-1.785-3.383-4.531-3.383-2.727 0-4.993 2.155-4.993 5.316 0 2.98 2.247 5.316 5.253 5.316 2.426 0 3.829-1.49 4.412-2.356l-1.805-1.209c-.601.886-1.423 1.47-2.607 1.47-1.182 0-2.025-.544-2.566-1.611l7.077-2.94-.24-.603Zm-7.218 1.773c-.059-2.055 1.584-3.101 2.768-3.101.922 0 1.704.463 1.965 1.127l-4.733 1.974Zm-5.753 5.155h2.325V21.874h-2.325V37.5Zm-3.81-9.123h-.08c-.521-.625-1.524-1.188-2.786-1.188-2.647 0-5.073 2.336-5.073 5.337 0 2.98 2.426 5.296 5.073 5.296 1.263 0 2.265-.563 2.786-1.207h.08v.765c0 2.034-1.083 3.121-2.826 3.121-1.424 0-2.306-1.026-2.667-1.892l-2.025.846c.581 1.409 2.124 3.141 4.692 3.141 2.726 0 5.032-1.611 5.032-5.539v-9.545h-2.205v.865h-.001ZM96.35 35.73c-1.604 0-2.947-1.35-2.947-3.203 0-1.874 1.343-3.242 2.947-3.242 1.583 0 2.826 1.368 2.826 3.242 0 1.853-1.243 3.203-2.826 3.203Zm30.341-13.855h-5.564V37.5h2.321v-5.92h3.242c2.573 0 5.104-1.871 5.104-4.853 0-2.98-2.53-4.853-5.103-4.853Zm.06 7.53h-3.303V24.05h3.303c1.736 0 2.721 1.443 2.721 2.678 0 1.21-.985 2.678-2.721 2.678Zm14.351-2.243c-1.682 0-3.423.744-4.143 2.393l2.061.863c.44-.863 1.261-1.146 2.121-1.146 1.201 0 2.422.724 2.442 2.01v.161c-.421-.24-1.322-.602-2.422-.602-2.221 0-4.483 1.226-4.483 3.517 0 2.092 1.821 3.438 3.862 3.438 1.561 0 2.422-.704 2.962-1.529h.08v1.206h2.242v-5.99c.001-2.773-2.062-4.32-4.722-4.32Zm-.282 8.564c-.759 0-1.82-.383-1.82-1.328 0-1.206 1.321-1.668 2.462-1.668 1.02 0 1.501.22 2.121.522-.18 1.449-1.421 2.474-2.763 2.474Zm13.17-8.223-2.662 6.775h-.079l-2.763-6.775h-2.501l4.143 9.47-2.362 5.267h2.421l6.385-14.737h-2.582ZM133.077 37.5h2.321V21.874h-2.321V37.5ZM59.01 12.803c0 1.048-.31 1.882-.928 2.504-.702.74-1.618 1.11-2.743 1.11-1.077 0-1.995-.375-2.747-1.125-.755-.751-1.132-1.681-1.132-2.791 0-1.111.377-2.041 1.132-2.791.752-.752 1.67-1.127 2.747-1.127a3.84 3.84 0 0 1 1.532.314c.487.21.876.489 1.167.838l-.655.66c-.494-.594-1.175-.89-2.045-.89-.787 0-1.466.277-2.04.832-.573.555-.86 1.277-.86 2.163 0 .886.287 1.607.86 2.162a2.834 2.834 0 0 0 2.04.833c.834 0 1.53-.279 2.086-.838.36-.364.57-.87.626-1.518h-2.712v-.902h3.618c.037.197.053.385.053.566ZM64.746 9.671h-3.4v2.378h3.067v.9h-3.067v2.378h3.4v.923h-4.36v-7.5h4.36v.921ZM68.792 16.25h-.96V9.67h-2.085V8.75h5.13v.921h-2.085v6.579ZM74.59 16.25v-7.5h.959v7.5h-.96ZM79.804 16.25h-.96V9.67H76.76V8.75h5.13v.921h-2.085v6.579ZM91.602 15.281c-.734.758-1.646 1.136-2.738 1.136-1.09 0-2.003-.378-2.736-1.136-.734-.757-1.1-1.685-1.1-2.781s.366-2.024 1.1-2.781c.733-.758 1.645-1.138 2.736-1.138 1.086 0 1.996.381 2.733 1.143.737.76 1.105 1.686 1.105 2.776 0 1.096-.367 2.024-1.1 2.781Zm-4.766-.629c.552.563 1.228.843 2.028.843s1.478-.281 2.029-.843c.552-.562.83-1.28.83-2.152 0-.873-.278-1.59-.83-2.153-.551-.562-1.228-.842-2.029-.842-.8 0-1.476.281-2.028.842-.551.563-.829 1.28-.829 2.153 0 .872.278 1.59.829 2.152ZM94.049 16.25v-7.5h1.167l3.629 5.834h.041l-.041-1.445v-4.39h.96v7.5h-1.002l-3.797-6.117h-.041l.04 1.445v4.673h-.956Z" fill="#000"/><path d="M59.01 12.803c0 1.048-.31 1.882-.928 2.504-.702.74-1.618 1.11-2.743 1.11-1.077 0-1.995-.375-2.747-1.125-.755-.751-1.132-1.681-1.132-2.791 0-1.111.377-2.041 1.132-2.791.752-.752 1.67-1.127 2.747-1.127a3.84 3.84 0 0 1 1.532.314c.487.21.876.489 1.167.838l-.655.66c-.494-.594-1.175-.89-2.045-.89-.787 0-1.466.277-2.04.832-.573.555-.86 1.277-.86 2.163 0 .886.287 1.607.86 2.162a2.834 2.834 0 0 0 2.04.833c.834 0 1.53-.279 2.086-.838.36-.364.57-.87.626-1.518h-2.712v-.902h3.618c.037.197.053.385.053.566ZM64.746 9.671h-3.4v2.378h3.067v.9h-3.067v2.378h3.4v.923h-4.36v-7.5h4.36v.921ZM68.792 16.25h-.96V9.67h-2.085V8.75h5.13v.921h-2.085v6.579ZM74.59 16.25v-7.5h.959v7.5h-.96ZM79.804 16.25h-.96V9.67H76.76V8.75h5.13v.921h-2.085v6.579ZM91.602 15.281c-.734.758-1.646 1.136-2.738 1.136-1.09 0-2.003-.378-2.736-1.136-.734-.757-1.1-1.685-1.1-2.781s.366-2.024 1.1-2.781c.733-.758 1.645-1.138 2.736-1.138 1.086 0 1.996.381 2.733 1.143.737.76 1.105 1.686 1.105 2.776 0 1.096-.367 2.024-1.1 2.781Zm-4.766-.629c.552.563 1.228.843 2.028.843s1.478-.281 2.029-.843c.552-.562.83-1.28.83-2.152 0-.873-.278-1.59-.83-2.153-.551-.562-1.228-.842-2.029-.842-.8 0-1.476.281-2.028.842-.551.563-.829 1.28-.829 2.153 0 .872.278 1.59.829 2.152ZM94.049 16.25v-7.5h1.167l3.629 5.834h.041l-.041-1.445v-4.39h.96v7.5h-1.002l-3.797-6.117h-.041l.04 1.445v4.673h-.956Z" stroke="#000" stroke-width=".2" stroke-miterlimit="10"/><g filter="url(#a)"><path d="M12.987 9.422c-.362.385-.576.983-.576 1.757v27.645c0 .775.214 1.37.576 1.756l.092.09 15.418-15.486v-.365L13.079 9.33l-.092.091Z" fill="url(#b)"/><path d="m33.635 30.348-5.138-5.164v-.365l5.14-5.163.115.067 6.089 3.475c1.738.992 1.738 2.616 0 3.61l-6.09 3.474-.116.066Z" fill="url(#c)"/><g filter="url(#d)"><path d="m33.752 30.281-5.257-5.28L12.987 40.58c.572.61 1.52.685 2.586.077l18.179-10.376Z" fill="url(#e)"/></g><path d="M33.752 19.72 15.573 9.347c-1.066-.609-2.014-.533-2.586.077l15.51 15.58 5.255-5.282Z" fill="url(#f)"/></g><path d="M5 1h158v-2H5v2Zm162 4v40h2V5h-2Zm-4 44H5v2h158v-2ZM1 45V5h-2v40h2Zm4 4a4 4 0 0 1-4-4h-2a6 6 0 0 0 6 6v-2Zm162-4a4 4 0 0 1-4 4v2a6 6 0 0 0 6-6h-2Zm-4-44a4 4 0 0 1 4 4h2a6 6 0 0 0-6-6v2ZM5-1a6 6 0 0 0-6 6h2a4 4 0 0 1 4-4v-2Z" fill="#A6A6A6"/><defs><linearGradient id="b" x1="27.13" y1="10.886" x2="6.153" y2="31.77" gradientUnits="userSpaceOnUse"><stop stop-color="#00A0FF"/><stop offset=".007" stop-color="#00A1FF"/><stop offset=".26" stop-color="#00BEFF"/><stop offset=".512" stop-color="#00D2FF"/><stop offset=".76" stop-color="#00DFFF"/><stop offset="1" stop-color="#00E3FF"/></linearGradient><linearGradient id="c" x1="42.104" y1="25.001" x2="11.993" y2="25.001" gradientUnits="userSpaceOnUse"><stop stop-color="#FFE000"/><stop offset=".409" stop-color="#FFBD00"/><stop offset=".775" stop-color="orange"/><stop offset="1" stop-color="#FF9C00"/></linearGradient><linearGradient id="e" x1="30.897" y1="27.868" x2="2.449" y2="56.19" gradientUnits="userSpaceOnUse"><stop stop-color="#FF3A44"/><stop offset="1" stop-color="#C31162"/></linearGradient><linearGradient id="f" x1="9.081" y1=".221" x2="21.784" y2="12.867" gradientUnits="userSpaceOnUse"><stop stop-color="#32A071"/><stop offset=".069" stop-color="#2DA771"/><stop offset=".476" stop-color="#15CF74"/><stop offset=".801" stop-color="#06E775"/><stop offset="1" stop-color="#00F076"/></linearGradient><filter id="a" x="12.411" y="8.926" width="28.734" height="32.151" filterUnits="userSpaceOnUse" color-interpolation-filters="sRGB"><feFlood flood-opacity="0" result="BackgroundImageFix"/><feBlend in="SourceGraphic" in2="BackgroundImageFix" result="shape"/><feColorMatrix in="SourceAlpha" values="0 0 0 0 0 0 0 0 0 0 0 0 0 0 0 0 0 0 127 0" result="hardAlpha"/><feOffset dy="-.15"/><feComposite in2="hardAlpha" operator="arithmetic" k2="-1" k3="1"/><feColorMatrix values="0 0 0 0 0 0 0 0 0 0 0 0 0 0 0 0 0 0 0.12 0"/><feBlend in2="shape" result="effect1_innerShadow_141:145"/><feColorMatrix in="SourceAlpha" values="0 0 0 0 0 0 0 0 0 0 0 0 0 0 0 0 0 0 127 0" result="hardAlpha"/><feOffset dy=".15"/><feComposite in2="hardAlpha" operator="arithmetic" k2="-1" k3="1"/><feColorMatrix values="0 0 0 0 1 0 0 0 0 1 0 0 0 0 1 0 0 0 0.25 0"/><feBlend in2="effect1_innerShadow_141:145" result="effect2_innerShadow_141:145"/></filter><filter id="d" x="12.987" y="25.001" width="20.765" height="16.076" filterUnits="userSpaceOnUse" color-interpolation-filters="sRGB"><feFlood flood-opacity="0" result="BackgroundImageFix"/><feBlend in="SourceGraphic" in2="BackgroundImageFix" result="shape"/><feColorMatrix in="SourceAlpha" values="0 0 0 0 0 0 0 0 0 0 0 0 0 0 0 0 0 0 127 0" result="hardAlpha"/><feOffset dy="-.15"/><feComposite in2="hardAlpha" operator="arithmetic" k2="-1" k3="1"/><feColorMatrix values="0 0 0 0 0 0 0 0 0 0 0 0 0 0 0 0 0 0 0.08 0"/><feBlend in2="shape" result="effect1_innerShadow_141:145"/></filter></defs></svg>