<svg width="54" height="50" fill="none" xmlns="http://www.w3.org/2000/svg"><path fill-rule="evenodd" clip-rule="evenodd" d="M13.944 7.796h.887l.596-.658 4.34-4.791h14.41l4.34 4.791.596.658h9.436c1.844 0 3.395 1.537 3.395 3.448v32.694c0 1.911-1.551 3.449-3.394 3.449H5.394C3.551 47.387 2 45.849 2 43.937V11.245c0-1.91 1.55-3.448 3.394-3.448h8.55Zm0-2L18.88.346h16.184l4.935 5.45h8.55c2.968 0 5.395 2.452 5.395 5.448v32.694c0 2.997-2.428 5.449-5.394 5.449H5.394C2.427 49.387 0 46.935 0 43.937V11.245c0-2.996 2.427-5.448 5.394-5.448h8.55ZM36.69 26.498a9.443 9.443 0 0 1-18.885 0 9.443 9.443 0 1 1 18.885 0Zm2 0c0 6.32-5.123 11.443-11.442 11.443-6.32 0-11.443-5.123-11.443-11.443 0-6.32 5.123-11.443 11.443-11.443 6.32 0 11.442 5.123 11.442 11.443Z" fill="#FFF"/></svg>