<svg width="161" height="48" fill="none" xmlns="http://www.w3.org/2000/svg"><path fill-rule="evenodd" clip-rule="evenodd" d="M39.041 28.217a6.517 6.517 0 0 1-6.78-1.538l-2.67-2.68 1.475-1.483h.621c2.894 0 5.595-1.41 7.28-3.694L44.117 24l-2.666 2.679a6.455 6.455 0 0 1-2.41 1.538ZM34.417 38.39c-.973 0-1.91-.211-2.783-.629a6.573 6.573 0 0 1-3.719-5.906v-3.79h2.092l.438.44a9.087 9.087 0 0 0 6.436 2.665c.435 0 .872-.038 1.306-.102v7.322h-3.77Zm-13.21 3.276a6.43 6.43 0 0 1-1.522-2.422 6.593 6.593 0 0 1 1.521-6.817l2.666-2.679 1.476 1.483v.623a9.18 9.18 0 0 0 3.674 7.319l-5.15 5.175-2.666-2.682Zm-11.65-7.067c0-.98.211-1.92.63-2.799a6.517 6.517 0 0 1 5.87-3.734h3.77v2.097l-.437.44c-2.04 2.056-2.958 4.972-2.547 7.787H9.557v-3.791ZM6.297 21.32a6.381 6.381 0 0 1 2.406-1.534 6.51 6.51 0 0 1 6.785 1.535L18.153 24l-1.476 1.484h-.62c-2.89 0-5.59 1.408-7.278 3.69L3.63 24l2.665-2.68ZM13.33 9.61c.974 0 1.91.212 2.783.628a6.572 6.572 0 0 1 3.713 5.906v3.79H17.74l-.435-.44a9.09 9.09 0 0 0-7.747-2.563v-7.32h3.774Zm10.54-5.96 2.67 2.682a6.434 6.434 0 0 1 1.526 2.42 6.601 6.601 0 0 1-1.526 6.82l-2.668 2.68-1.478-1.485v-.623c0-2.902-1.399-5.616-3.67-7.318l5.147-5.176Zm1.478 21.834v2.097l-1.477-1.484-1.477 1.484v-2.097h-2.087L21.785 24l-1.477-1.484h2.087v-2.098l1.477 1.484 1.477-1.483v2.097h2.087l-1.477 1.486 1.477 1.483H25.35Zm12.838-12.083c0 .976-.212 1.914-.631 2.795a6.507 6.507 0 0 1-5.869 3.738h-3.772V17.84l.444-.444c2.039-2.054 2.957-4.971 2.548-7.786h7.28v3.79ZM47.747 24l-7.516-7.557c.346-.97.523-1.99.523-3.041V7.03H30.133a9.055 9.055 0 0 0-1.775-2.521L23.872 0 16.36 7.554a8.949 8.949 0 0 0-3.029-.524H6.989v10.682a8.954 8.954 0 0 0-2.507 1.784L0 24l7.512 7.551a9.058 9.058 0 0 0-.523 3.047v6.371h10.63a9.007 9.007 0 0 0 1.771 2.521L23.872 48l7.515-7.554a8.95 8.95 0 0 0 3.03.523h6.337V30.29a9.018 9.018 0 0 0 2.513-1.786L47.747 24Z" fill="#25B072"/><path fill-rule="evenodd" clip-rule="evenodd" d="m74.84 28.505-4.754-9.037-5.79 11.155c.784-.406 1.993-.863 3.625-1.365 1.631-.5 3.719-.753 6.26-.753h.66Zm-8.849-16.85h5.225L84.395 36.6h-5.319l-1.928-3.67h-2.92c-1.506 0-2.997.125-4.471.375a34.287 34.287 0 0 0-4.024.918c-1.208.36-2.229.738-3.06 1.13-.831.392-1.342.714-1.53.964l-.141.283h-5.083l11.673-21.886-1.6-3.06ZM93.337 17.067v14.639h4.83c2.345 0 4.157-.643 5.439-1.93 1.281-1.286 1.922-3.107 1.922-5.46 0-2.385-.641-4.189-1.922-5.412-1.282-1.224-3.094-1.837-5.439-1.837h-4.83ZM83.03 12.22h15.11c1.82 0 3.49.258 5.012.777 1.522.518 2.825 1.287 3.907 2.307 1.082 1.02 1.922 2.274 2.518 3.765.595 1.491.894 3.209.894 5.154 0 1.883-.29 3.593-.87 5.13-.581 1.538-1.413 2.84-2.495 3.907-1.083 1.067-2.386 1.89-3.907 2.471-1.523.582-3.209.871-5.06.871h-9.931V17.067h-3.012l-2.166-4.848ZM129.675 28.505l-4.755-9.037-5.789 11.155c.784-.406 1.992-.863 3.624-1.365 1.632-.5 3.719-.753 6.261-.753h.659Zm-8.85-16.85h5.225L139.229 36.6h-5.318l-1.929-3.67h-2.919c-1.507 0-2.997.125-4.472.375a34.309 34.309 0 0 0-4.024.918c-1.208.36-2.229.738-3.06 1.13-.831.392-1.342.714-1.53.964l-.141.283h-5.083l11.673-21.886-1.601-3.06ZM142.336 36.6V12.22h5.036v19.486h12.944V36.6h-17.98Z" fill="#fff"/></svg>