<svg width="15" height="14" fill="none" xmlns="http://www.w3.org/2000/svg"><path d="M14.529 5.935 8.56.365C8.3.123 8.036 0 7.773 0c-.366 0-.792.256-.792.976V4.41c-1.822.116-3.517.838-4.812 2.06C.77 7.789 0 9.537 0 11.393c0 .8.144 1.585.427 2.334A.439.439 0 0 0 .842 14c.186 0 .352-.11.414-.273.873-2.304 3.139-3.91 5.725-4.1v3.397c0 .72.426.976.792.976.263 0 .528-.123.788-.365l5.968-5.57C14.833 7.78 15 7.402 15 7c0-.403-.167-.781-.471-1.065Zm-.622 1.55-5.968 5.57a1.013 1.013 0 0 1-.075.064.84.84 0 0 1-.005-.095V9.197a.397.397 0 0 0-.13-.291.456.456 0 0 0-.31-.119h-.004a7.808 7.808 0 0 0-4.322 1.335 7.18 7.18 0 0 0-2.134 2.236 5.819 5.819 0 0 1-.08-.965c0-3.37 2.936-6.141 6.546-6.179.24-.002.434-.185.434-.41V.976c0-.037.002-.069.005-.095a.987.987 0 0 1 .075.064l5.968 5.57a.658.658 0 0 1 0 .97Z" fill="#6BB6E4"/></svg>