<svg width="32" height="32" fill="none" xmlns="http://www.w3.org/2000/svg"><path d="M4 27.2V4.8a.8.8 0 0 1 .8-.8h22.4a.8.8 0 0 1 .8.8v22.4a.8.8 0 0 1-.8.8H4.8a.8.8 0 0 1-.8-.8Z" stroke="#6BB6E4" stroke-width="2"/><path d="M16 21.855v2.812m4-13.334c-.913-.913-2.522-1.548-4-1.588l4 1.588ZM12 20c.86 1.146 2.457 1.8 4 1.855L12 20Zm4-10.255c-1.759-.047-3.333.748-3.333 2.922 0 4 7.333 2 7.333 6 0 2.281-1.952 3.261-4 3.188V9.745Zm0 0V7.333v2.412Z" stroke="#6BB6E4" stroke-width="2" stroke-linecap="round" stroke-linejoin="round"/></svg>