<svg width="32" height="32" fill="none" xmlns="http://www.w3.org/2000/svg"><path d="M21.333 5.333H24A2.667 2.667 0 0 1 26.667 8v18.667A2.666 2.666 0 0 1 24 29.333H8a2.667 2.667 0 0 1-2.667-2.666V8A2.667 2.667 0 0 1 8 5.333h2.667" stroke="#6BB6E4" stroke-width="2" stroke-linecap="round" stroke-linejoin="round"/><path d="M20 2.667h-8c-.736 0-1.333.596-1.333 1.333v2.667C10.667 7.402 11.264 8 12 8h8c.736 0 1.333-.597 1.333-1.333V4c0-.737-.597-1.333-1.333-1.333Z" stroke="#6BB6E4" stroke-width="2" stroke-linecap="round" stroke-linejoin="round"/></svg>