<svg width="17" height="16" fill="none" xmlns="http://www.w3.org/2000/svg"><path d="M1.287 14.78c.086.227.311.37.555.37a.589.589 0 0 0 .554-.37c.832-2.197 2.97-3.75 5.435-3.99v3.234c0 .39.116.676.302.864a.896.896 0 0 0 .64.262c.313 0 .612-.146.89-.405l5.968-5.57c.333-.312.519-.73.519-1.175 0-.446-.186-.863-.519-1.174l-5.968-5.57C9.386.995 9.086.85 8.773.85a.896.896 0 0 0-.64.262c-.186.188-.302.473-.302.864V5.27c-1.802.145-3.477.875-4.765 2.09C1.64 8.707.85 10.494.85 12.393c0 .818.147 1.62.437 2.387Zm0 0 .14-.053-.14.053Zm7.128-5.143h-.001a7.958 7.958 0 0 0-4.405 1.361l.084.124-.084-.124a7.385 7.385 0 0 0-1.955 1.934 5.688 5.688 0 0 1-.025-.539c0-3.278 2.86-5.992 6.397-6.029.314-.003.583-.243.583-.56V2.216l5.796 5.41a.508.508 0 0 1 0 .749l-5.796 5.41v-3.588a.547.547 0 0 0-.178-.402.606.606 0 0 0-.411-.158h-.005Z" fill="#6BB6E4" stroke="#6BB6E4" stroke-width=".3"/></svg>