<svg width="18" height="18" fill="none" xmlns="http://www.w3.org/2000/svg"><path d="M7.39 9.805a4.023 4.023 0 0 0 6.067.435l2.414-2.416A4.029 4.029 0 0 0 13.012 1a4.02 4.02 0 0 0-2.83 1.13L8.8 3.507" stroke="#6BB6E4" stroke-width="1.5" stroke-linecap="round" stroke-linejoin="round"/><path d="M10.61 8.195a4.024 4.024 0 0 0-4.628-1.36 4.022 4.022 0 0 0-1.44.925L2.13 10.177A4.03 4.03 0 0 0 4.988 17a4.02 4.02 0 0 0 2.83-1.13l1.375-1.378" stroke="#6BB6E4" stroke-width="1.5" stroke-linecap="round" stroke-linejoin="round"/></svg>