<svg width="18" height="15" fill="none" xmlns="http://www.w3.org/2000/svg"><path d="M1.237 6.457c4.832-2.116 8.054-3.512 9.666-4.186C15.506.346 16.463.01 17.086 0c.137-.003.444.031.642.193a.704.704 0 0 1 .236.451c.022.13.05.426.028.656-.25 2.636-1.329 9.031-1.878 11.983-.232 1.249-.69 1.668-1.133 1.709-.962.089-1.693-.64-2.625-1.255-1.459-.961-2.283-1.56-3.7-2.498-1.636-1.084-.575-1.68.358-2.654.244-.255 4.485-4.134 4.567-4.486.01-.044.02-.208-.077-.295-.097-.086-.24-.057-.343-.033-.147.033-2.477 1.582-6.992 4.647-.661.456-1.26.679-1.797.667-.592-.013-1.73-.336-2.577-.613-1.038-.34-1.862-.519-1.79-1.095.037-.3.448-.607 1.232-.92Z" fill="#575757"/></svg>