<svg width="22" height="22" fill="none" xmlns="http://www.w3.org/2000/svg"><path d="M18.484 6.27C15.85 2.2 10.476.99 6.307 3.52 2.248 6.05.932 11.55 3.565 15.62l.22.33-.878 3.3 3.29-.88.33.22c1.426.77 2.962 1.21 4.497 1.21 1.646 0 3.291-.44 4.717-1.32 4.06-2.64 5.266-8.03 2.743-12.21Zm-2.304 8.47c-.439.66-.987 1.1-1.755 1.21-.439 0-.987.22-3.181-.66-1.865-.88-3.401-2.31-4.498-3.96-.658-.77-.987-1.76-1.097-2.75 0-.88.33-1.65.878-2.2.22-.22.438-.33.658-.33h.548c.22 0 .44 0 .549.44.22.55.768 1.87.768 1.98.11.11.11.33 0 .44.11.22 0 .44-.11.55-.11.11-.22.33-.33.44-.218.11-.328.33-.218.55.438.66.987 1.32 1.535 1.87.659.55 1.317.99 2.085 1.32.219.11.438.11.548-.11.11-.22.658-.77.878-.99.219-.22.329-.22.548-.11l1.755.88c.22.11.44.22.549.33.11.33.11.77-.11 1.1Z" fill="#575757"/></svg>