<svg width="32" height="33" fill="none" xmlns="http://www.w3.org/2000/svg"><path fill-rule="evenodd" clip-rule="evenodd" d="M26.165 18.813a4.384 4.384 0 0 1-4.544-1.025L19.83 16l.99-.99h.415c1.94 0 3.75-.94 4.88-2.462l3.45 3.452-1.786 1.787a4.33 4.33 0 0 1-1.615 1.025Zm-3.1 6.785a4.31 4.31 0 0 1-1.864-.42 4.38 4.38 0 0 1-2.492-3.938v-2.526h1.402l.293.292a6.106 6.106 0 0 0 4.313 1.778c.292 0 .585-.026.875-.068v4.882h-2.526Zm-8.853 2.184a4.283 4.283 0 0 1-1.02-1.615 4.38 4.38 0 0 1 1.02-4.545L16 19.836l.99.988v.416a6.11 6.11 0 0 0 2.461 4.88L16 29.57l-1.787-1.788ZM6.405 23.07a4.37 4.37 0 0 1 4.356-4.356h2.527v1.399l-.293.293a6.114 6.114 0 0 0-1.707 5.192H6.405V23.07ZM4.22 14.217a4.28 4.28 0 0 1 1.613-1.022 4.38 4.38 0 0 1 4.546 1.023l1.787 1.786-.99.99h-.415a6.104 6.104 0 0 0-4.878 2.46l-3.45-3.45 1.787-1.787Zm4.714-7.81c.653 0 1.28.142 1.866.42a4.38 4.38 0 0 1 2.488 3.937v2.527h-1.4l-.291-.293a6.111 6.111 0 0 0-5.192-1.71v-4.88h2.53ZM16 2.435l1.789 1.789a4.286 4.286 0 0 1 1.022 1.613 4.385 4.385 0 0 1-1.022 4.547l-1.789 1.787-.99-.99v-.415a6.112 6.112 0 0 0-2.46-4.88L16 2.436Zm.99 14.556v1.399l-.99-.99-.99.99V16.99H13.61l.99-.99-.99-.989h1.4v-1.4l.989.99.99-.989v1.4h1.398l-.99.99.99.988h-1.399Zm8.603-8.055c0 .651-.141 1.277-.422 1.864a4.362 4.362 0 0 1-3.934 2.492H18.71v-1.396l.297-.296a6.122 6.122 0 0 0 1.708-5.191h4.878v2.527ZM32 16.002l-5.037-5.039c.232-.647.35-1.327.35-2.027V4.688h-7.118a6.037 6.037 0 0 0-1.19-1.682L16 0l-5.034 5.037a6.025 6.025 0 0 0-2.03-.35h-4.25v7.122A6 6 0 0 0 3.003 13L0 16.002l5.035 5.035c-.232.649-.35 1.33-.35 2.031v4.248h7.124a6.005 6.005 0 0 0 1.186 1.681l3.004 3.007 5.036-5.037c.65.232 1.33.35 2.03.35h4.248v-7.12a6.047 6.047 0 0 0 1.684-1.192L32 16.002Z" fill="#25B072"/></svg>