<svg width="30" height="30" fill="none" xmlns="http://www.w3.org/2000/svg"><path d="M28.333 21.56v4a2.668 2.668 0 0 1-2.906 2.666 26.386 26.386 0 0 1-11.507-4.093 26 26 0 0 1-8-8 26.387 26.387 0 0 1-4.093-11.56A2.667 2.667 0 0 1 4.48 1.666h4a2.667 2.667 0 0 1 2.667 2.293c.168 1.28.482 2.537.933 3.747a2.667 2.667 0 0 1-.6 2.814l-1.693 1.693a21.334 21.334 0 0 0 8 8l1.693-1.694a2.666 2.666 0 0 1 2.813-.6c1.21.452 2.467.765 3.747.934a2.667 2.667 0 0 1 2.293 2.706Z" stroke="#25B072" stroke-width="2" stroke-linecap="round" stroke-linejoin="round"/></svg>