<svg width="32" height="32" fill="none" xmlns="http://www.w3.org/2000/svg"><path d="M21.333 5.334H24a2.667 2.667 0 0 1 2.667 2.667v18.666A2.666 2.666 0 0 1 24 29.334H8a2.667 2.667 0 0 1-2.667-2.667V8.001A2.667 2.667 0 0 1 8 5.334h2.667" stroke="#25B072" stroke-width="2" stroke-linecap="round" stroke-linejoin="round"/><path d="M20 2.666h-8c-.736 0-1.333.597-1.333 1.333v2.667c0 .736.597 1.333 1.333 1.333h8c.736 0 1.333-.597 1.333-1.333V3.999c0-.736-.597-1.333-1.333-1.333Z" stroke="#25B072" stroke-width="2" stroke-linecap="round" stroke-linejoin="round"/></svg>